<svg xmlns="http://www.w3.org/2000/svg" xmlns:xlink="http://www.w3.org/1999/xlink" version="1.1" x="0px" y="0px" viewBox="0 0 100 125" enable-background="new 0 0 100 100" xml:space="preserve"><path d="M62.9,52.3c-3.8-9.3-1.7-19.6,4.7-26.6c-2.5,0.2-5,0.8-7.4,1.8c-12.9,5.3-19,20-13.7,32.9c5.3,12.9,20,19,32.9,13.7  c3.5-1.5,6.5-3.7,9-6.3C77.8,68.7,67.3,62.7,62.9,52.3z"/><polygon points="32.9,29.3 30.3,24 27.7,29.3 21.9,30.2 26.1,34.3 25.1,40.1 30.3,37.4 35.6,40.1 34.6,34.3 38.8,30.2 "/><polygon points="19.3,50 17.5,46.3 15.6,50 11.6,50.6 14.5,53.5 13.8,57.5 17.5,55.6 21.1,57.5 20.4,53.5 23.4,50.6 "/></svg>