<svg xmlns="http://www.w3.org/2000/svg" xmlns:xlink="http://www.w3.org/1999/xlink" version="1.1" x="0px" y="0px" viewBox="0 0 100 125" enable-background="new 0 0 100 100" xml:space="preserve"><path d="M41.8,85h-2.5l1.2-2.2c0.5-0.9,0.3-2-0.6-2.5c-0.8-0.5-1.9-0.1-2.4,0.8l-1.2,2.1l-1.2-2.1c-0.5-0.9-1.6-1.3-2.4-0.8  c-0.8,0.5-1.1,1.6-0.6,2.5l1.2,2.2h-2.5c-1,0-1.9,0.8-1.9,1.7s0.9,1.7,1.9,1.7h2.5l-1.2,2.2c-0.5,0.9-0.3,2,0.6,2.5  c0.8,0.5,1.9,0.1,2.4-0.8l1.2-2.1l1.2,2.1c0.5,0.9,1.6,1.3,2.4,0.8c0.8-0.5,1.1-1.6,0.6-2.5l-1.2-2.2h2.5c1,0,1.9-0.8,1.9-1.7  S42.9,85,41.8,85z"/><path d="M60.3,87.5c-1.3-0.6-2.8,0-3.4,1.3l-2.1,4.8c-0.6,1.3,0,2.9,1.3,3.5c0.3,0.2,0.7,0.2,1.1,0.2c1,0,1.9-0.6,2.3-1.5l2.1-4.8  C62.2,89.7,61.6,88.1,60.3,87.5z"/><path d="M88.9,44.7c-10.7,1-21.2-5-25.5-15.5c-3.8-9.3-1.7-19.6,4.7-26.6c-2.5,0.2-5,0.8-7.4,1.8C50.2,8.8,44.2,19.5,45.3,30.3  c-1.9-0.6-3.9-1-6.1-1c-10.4,0-19,7.7-20.8,18.4c-4.6,2.9-7.4,7.7-7.4,12.5c0,7.3,5.8,15.1,15.1,15.1h26.4L52,76.8  c-0.6,1.3,0,2.9,1.3,3.5c0.4,0.2,0.7,0.2,1.1,0.2c1,0,1.9-0.6,2.3-1.5l1.6-3.7h13.1c8.6,0,15.9-6.9,15.9-15.1  c0-4.1-1.8-7.8-4.7-10.6C85,48.3,87.2,46.6,88.9,44.7z M82,60.3c0,5.3-4.8,9.8-10.6,9.8H26.2c-6.1,0-9.8-5.1-9.8-9.8  c0-3.2,2.3-6.7,5.8-8.6l1.2-0.7l0.2-1.4c1-8.7,7.6-15,15.7-15c2.8,0,5.3,0.7,7.7,2.3c0.9,0.6,1.8,1.3,2.7,2.1l1,0.9l1.3-0.3  c0.9-0.2,2.3-0.3,3-0.3c5.2,0,9.6,4,10.4,9.2l0.4,2.9l2.8-0.7c0.9-0.2,1.9-0.3,2.8-0.3c2,0,3.9,0.6,5.5,1.5  C79.9,53.7,82,56.8,82,60.3z"/><polygon points="25.6,20 30.8,17.3 36.1,20 35.1,14.2 39.3,10.1 33.4,9.3 30.8,4 28.2,9.3 22.4,10.1 26.6,14.2 "/><polygon points="14.3,34.5 18,32.6 21.6,34.5 20.9,30.4 23.9,27.5 19.8,26.9 18,23.2 16.1,26.9 12.1,27.5 15,30.4 "/></svg>