<svg xmlns="http://www.w3.org/2000/svg" xmlns:xlink="http://www.w3.org/1999/xlink" version="1.1" x="0px" y="0px" viewBox="0 0 100 125" enable-background="new 0 0 100 100" xml:space="preserve"><path d="M39.5,76.7c-1.3-0.6-2.8,0-3.4,1.3l-2.1,4.8c-0.6,1.3,0,2.9,1.3,3.5c0.3,0.2,0.7,0.2,1.1,0.2c1,0,1.9-0.6,2.3-1.5l2.1-4.8  C41.4,78.9,40.8,77.3,39.5,76.7z"/><path d="M55.1,85.2c-1.3-0.6-2.8,0-3.4,1.3l-2.1,4.8c-0.6,1.3,0,2.9,1.3,3.5c0.3,0.2,0.7,0.2,1.1,0.2c1,0,1.9-0.6,2.3-1.5l2.1-4.8  C56.9,87.3,56.4,85.8,55.1,85.2z"/><path d="M71.4,79.3c8.6,0,15.9-6.9,15.9-15.1c0-4.1-1.8-7.8-4.7-10.6c2.4-1.3,4.5-3.1,6.3-5c-10.7,1-21.2-5-25.5-15.5  c-3.8-9.3-1.7-19.6,4.7-26.6c-2.5,0.2-5,0.8-7.4,1.8c-10.5,4.4-16.5,15.1-15.4,25.9c-1.9-0.6-3.9-1-6.1-1c-10.4,0-19,7.7-20.8,18.4  c-4.6,2.9-7.4,7.7-7.4,12.5c0,7.3,5.8,15.1,15.1,15.1H71.4z M82,64.2c0,5.3-4.8,9.8-10.6,9.8H26.2c-6.1,0-9.8-5.1-9.8-9.8  c0-3.2,2.3-6.7,5.8-8.6l1.2-0.7l0.2-1.4c1-8.7,7.6-15,15.7-15c2.8,0,5.3,0.7,7.7,2.3c0.9,0.6,1.8,1.3,2.7,2.1l1,0.9l1.3-0.3  c0.9-0.2,2.3-0.3,3-0.3c5.2,0,9.6,4,10.4,9.2l0.4,2.9l2.8-0.7c0.9-0.2,1.9-0.3,2.8-0.3c2,0,3.9,0.6,5.5,1.5  C79.9,57.7,82,60.8,82,64.2z"/><polygon points="25.6,21 30.8,18.3 36.1,21 35.1,15.2 39.3,11.1 33.4,10.3 30.8,5 28.2,10.3 22.4,11.1 26.6,15.2 "/><polygon points="14.3,38.5 18,36.6 21.6,38.5 20.9,34.4 23.9,31.5 19.8,30.9 18,27.2 16.1,30.9 12.1,31.5 15,34.4 "/></svg>