<svg xmlns="http://www.w3.org/2000/svg" xmlns:xlink="http://www.w3.org/1999/xlink" version="1.1" x="0px" y="0px" viewBox="0 0 100 125" enable-background="new 0 0 100 100" xml:space="preserve"><path d="M42.7,78.9h-2.5l1.2-2.2c0.5-0.9,0.3-2-0.6-2.5c-0.8-0.5-1.9-0.1-2.4,0.8l-1.2,2.1L36,75c-0.5-0.9-1.6-1.3-2.4-0.8  c-0.8,0.5-1.1,1.6-0.6,2.5l1.2,2.2h-2.5c-1,0-1.9,0.8-1.9,1.7c0,0.9,0.9,1.7,1.9,1.7h2.5L33,84.5c-0.5,0.9-0.3,2,0.6,2.5  c0.8,0.5,1.9,0.1,2.4-0.8l1.2-2.1l1.2,2.1c0.5,0.9,1.6,1.3,2.4,0.8c0.8-0.5,1.1-1.6,0.6-2.5l-1.2-2.2h2.5c1,0,1.9-0.8,1.9-1.7  C44.6,79.6,43.7,78.9,42.7,78.9z"/><path d="M60.2,85.3c-1.3-0.6-2.8,0-3.4,1.3l-2.1,4.8c-0.6,1.3,0,2.9,1.3,3.5c0.3,0.2,0.7,0.2,1.1,0.2c1,0,1.9-0.6,2.3-1.5l2.1-4.8  C62,87.5,61.5,85.9,60.2,85.3z"/><path d="M62.6,15.3h0.5c1,0,1.9-0.8,1.9-1.9V6.6c0-1-0.8-1.9-1.9-1.9h-0.5c-1,0-1.9,0.8-1.9,1.9v6.8C60.8,14.4,61.6,15.3,62.6,15.3z  "/><path d="M73.8,19.9c0.7,0.7,1.9,0.7,2.6,0l4.8-4.8c0.7-0.7,0.7-1.9,0-2.6l-0.3-0.3c-0.7-0.7-1.9-0.7-2.6,0L73.5,17  c-0.7,0.7-0.7,1.9,0,2.6L73.8,19.9z"/><path d="M86.7,28.4H80c-1,0-1.9,0.8-1.9,1.9v0.5c0,1,0.8,1.9,1.9,1.9h6.8c1,0,1.9-0.8,1.9-1.9v-0.5C88.6,29.3,87.8,28.4,86.7,28.4z"/><path d="M49.3,19.9c0.7,0.7,1.9,0.7,2.6,0l0.3-0.3c0.7-0.7,0.7-1.9,0-2.6l-4.8-4.8c-0.7-0.7-1.9-0.7-2.6,0l-0.3,0.3  c-0.7,0.7-0.7,1.9,0,2.6L49.3,19.9z"/><path d="M71.4,38.6c-0.4,0-0.8,0-1.1,0.1c2.2-2,3.7-4.9,3.7-8.2c0-6.1-4.9-11-11-11c-5.1,0-9.5,3.5-10.7,8.3c-0.1,0-0.1,0-0.2,0  c-3.9-3.4-8-5-12.8-5C29,22.8,20.7,30.4,19,41c-4.5,2.9-7.4,7.7-7.4,12.4c0,8.1,6.6,14.8,14.7,14.8h27.8L53,70.6  c-0.6,1.3,0,2.9,1.3,3.5c0.4,0.2,0.7,0.2,1.1,0.2c1,0,1.9-0.6,2.3-1.5l2.1-4.7h11.8C80,68.1,87,61.3,87,53.3  C86.8,45.4,79.8,38.6,71.4,38.6z M16.6,53.4c0-3.1,2.4-6.6,5.8-8.4l1.3-0.7l0.1-1.4C24.7,34.3,31.2,28,39.2,28  c1.1,0,2.1,0.1,3.1,0.3c1.9,0.4,3.6,1.2,5.3,2.5c0.6,0.5,1.3,1,1.9,1.6l1,1l1.3-0.3c0.1,0,0.2,0,0.3-0.1c0.8-0.1,2-0.2,2.8-0.2  c4.9,0,9,3.6,10,8.5c0,0.3,0.1,0.5,0.2,0.8l0.4,3l2.9-0.8c1-0.3,2.1-0.4,3.1-0.4c0.8,0,1.5,0.1,2.2,0.3c2.9,0.7,5.4,2.5,6.8,5  c0.7,1.3,1.2,2.7,1.2,4.2c0,5-4.8,9.4-10.2,9.4H26.1C20.2,62.9,16.6,58,16.6,53.4z"/><text x="0" y="115" fill="#000000" font-size="5px" font-weight="bold" font-family="'Helvetica Neue', Helvetica, Arial-Unicode, Arial, Sans-serif">Created by kiddo</text><text x="0" y="120" fill="#000000" font-size="5px" font-weight="bold" font-family="'Helvetica Neue', Helvetica, Arial-Unicode, Arial, Sans-serif">from the Noun Project</text></svg>