<svg xmlns="http://www.w3.org/2000/svg" xmlns:xlink="http://www.w3.org/1999/xlink" version="1.1" x="0px" y="0px" viewBox="0 0 100 125" enable-background="new 0 0 100 100" xml:space="preserve"><path d="M59.8,82.3h-2.5l1.2-2.2c0.5-0.9,0.3-2-0.6-2.5c-0.8-0.5-1.9-0.1-2.4,0.8l-1.2,2.1l-1.2-2.1c-0.5-0.9-1.6-1.3-2.4-0.8  c-0.8,0.5-1.1,1.6-0.6,2.5l1.2,2.2h-2.5c-1,0-1.9,0.8-1.9,1.7c0,0.9,0.9,1.7,1.9,1.7h2.5l-1.2,2.2c-0.5,0.9-0.3,2,0.6,2.5  c0.8,0.5,1.9,0.1,2.4-0.8l1.2-2.1l1.2,2.1c0.5,0.9,1.6,1.3,2.4,0.8c0.8-0.5,1.1-1.6,0.6-2.5l-1.2-2.2h2.5c1,0,1.9-0.8,1.9-1.7  C61.7,83,60.8,82.3,59.8,82.3z"/><path d="M38.2,73h-2.5l1.2-2.2c0.5-0.9,0.3-2-0.6-2.5c-0.8-0.5-1.9-0.1-2.4,0.8l-1.2,2.1l-1.2-2.1c-0.5-0.9-1.6-1.3-2.4-0.8  s-1.1,1.6-0.6,2.5l1.2,2.2h-2.5c-1,0-1.9,0.8-1.9,1.7c0,0.9,0.9,1.7,1.9,1.7h2.5l-1.2,2.2c-0.5,0.9-0.3,2,0.6,2.5  c0.8,0.5,1.9,0.1,2.4-0.8l1.2-2.1l1.2,2.1c0.5,0.9,1.6,1.3,2.4,0.8c0.8-0.5,1.1-1.6,0.6-2.5l-1.2-2.2h2.5c1,0,1.9-0.8,1.9-1.7  C40.1,73.8,39.3,73,38.2,73z"/><path d="M82.7,22c-0.4,0-0.9,0-1.3,0.1c-2.3-6-8.1-9.9-14.3-9c-3-2.3-6.5-3.6-10.2-3.6c-6.4,0-12.3,4.1-15.3,9.8  c-2.8-1.5-5.7-2.3-9-2.3C22.4,17,14,24.6,12.3,35.2c-4.5,2.9-7.4,7.7-7.4,12.4c0,8.1,6.6,14.8,14.7,14.8h45.3  c8.4,0,15.4-6.8,15.4-14.8c0-0.5,0-0.9-0.1-1.3h2.5c6.8,0,12.4-5.5,12.4-12.2C95.1,27.4,89.5,22,82.7,22z M75.1,47.6  c0,5-4.8,9.4-10.2,9.4H19.6c-5.9,0-9.5-4.9-9.5-9.4c0-3.1,2.4-6.6,5.8-8.4l1.3-0.7l0.1-1.4c0.9-8.6,7.4-14.9,15.4-14.9  c2.7,0,5,0.7,7.3,2.1c1,0.6,2,1.4,3,2.4l1,1l1-0.3l0.3-0.1c0.7-0.2,2.2-0.3,3.1-0.3c5.2,0,9.5,4,10.1,9.2l0.4,3l2.9-0.8  c1-0.3,2.1-0.4,3.1-0.4c2.7,0,5.2,1.1,7.1,2.8c1.6,1.4,2.6,3.3,3,5.3C75,46.7,75.1,47.2,75.1,47.6z M82.7,41h-4.1  c-2.6-4.8-7.8-8.1-13.7-8.1c-0.6,0-1.2,0-1.8,0.1c-1.9-6.5-7.9-11.2-14.7-11.2c-0.6,0-1.4,0-2.2,0.1c2-4.1,6.2-7.1,10.6-7.1  c2.8,0,5.5,1.1,7.7,3.1l1.1,1l1.4-0.4c4.7-1.2,9,2.3,9.9,7.2l0.6,3l2.9-1c0.8-0.3,1.6-0.4,2.3-0.4c3.9,0,7.1,3.1,7.1,6.9  C89.8,37.9,86.6,41,82.7,41z"/><text x="0" y="115" fill="#000000" font-size="5px" font-weight="bold" font-family="'Helvetica Neue', Helvetica, Arial-Unicode, Arial, Sans-serif">Created by kiddo</text><text x="0" y="120" fill="#000000" font-size="5px" font-weight="bold" font-family="'Helvetica Neue', Helvetica, Arial-Unicode, Arial, Sans-serif">from the Noun Project</text></svg>