<svg xmlns="http://www.w3.org/2000/svg" xmlns:xlink="http://www.w3.org/1999/xlink" version="1.1" x="0px" y="0px" viewBox="0 0 100 125" enable-background="new 0 0 100 100" xml:space="preserve"><path d="M13.5,52.7h42.8c1.5,0,2.7-1.2,2.7-2.7s-1.2-2.7-2.7-2.7H13.5c-1.5,0-2.7,1.2-2.7,2.7S12,52.7,13.5,52.7z"/><path d="M56.3,57.4H13.5c-1.5,0-2.7,1.2-2.7,2.7s1.2,2.7,2.7,2.7h42.8c4.1,0,7.4,3.3,7.4,7.4c0,4.1-3.3,7.4-7.4,7.4  s-7.4-3.3-7.4-7.4c0-1.5-1.2-2.7-2.7-2.7s-2.7,1.2-2.7,2.7c0,7,5.7,12.7,12.7,12.7S69,77.2,69,70.2S63.3,57.4,56.3,57.4z"/><path d="M76.4,17.1c-7,0-12.7,5.7-12.7,12.7c0,1.5,1.2,2.7,2.7,2.7s2.7-1.2,2.7-2.7c0-4.1,3.3-7.4,7.4-7.4c4.1,0,7.4,3.3,7.4,7.4  s-3.3,7.4-7.4,7.4H13.5c-1.5,0-2.7,1.2-2.7,2.7s1.2,2.7,2.7,2.7h62.9c7,0,12.7-5.7,12.7-12.7S83.4,17.1,76.4,17.1z"/><text x="0" y="115" fill="#000000" font-size="5px" font-weight="bold" font-family="'Helvetica Neue', Helvetica, Arial-Unicode, Arial, Sans-serif">Created by kiddo</text><text x="0" y="120" fill="#000000" font-size="5px" font-weight="bold" font-family="'Helvetica Neue', Helvetica, Arial-Unicode, Arial, Sans-serif">from the Noun Project</text></svg>