<svg xmlns="http://www.w3.org/2000/svg" xmlns:xlink="http://www.w3.org/1999/xlink" version="1.1" x="0px" y="0px" viewBox="0 0 100 125" enable-background="new 0 0 100 100" xml:space="preserve"><path d="M88.9,46.3c-10.7,1-21.2-5-25.5-15.5c-3.8-9.3-1.7-19.6,4.7-26.6c-2.5,0.2-5,0.8-7.4,1.8c-10.5,4.4-16.5,15.1-15.4,25.9  c-1.9-0.6-3.9-1-6.1-1c-10.4,0-19,7.7-20.8,18.4c-4.6,2.9-7.4,7.7-7.4,12.5c0,7.3,5.8,15.1,15.1,15.1h15.3l-3,8.4h7.6l-3.3,10.3  l14.2-15h-7.3l2-3.7h19.7c8.6,0,15.9-6.9,15.9-15.1c0-4.1-1.8-7.8-4.7-10.6C85,50,87.2,48.3,88.9,46.3z M82,61.9  c0,5.3-4.8,9.8-10.6,9.8H59.9H45.3H26.2c-6.1,0-9.8-5.1-9.8-9.8c0-3.2,2.3-6.7,5.8-8.6l1.2-0.7l0.2-1.4c1-8.7,7.6-15,15.7-15  c2.8,0,5.3,0.7,7.7,2.3c0.9,0.6,1.8,1.3,2.7,2.1l1,0.9l1.3-0.3c0.9-0.2,2.3-0.3,3-0.3c5.2,0,9.6,4,10.4,9.2l0.4,2.9l2.8-0.7  c0.9-0.2,1.9-0.3,2.8-0.3c2,0,3.9,0.6,5.5,1.5C79.9,55.4,82,58.5,82,61.9z"/><polygon points="25.6,22.7 30.8,20 36.1,22.7 35.1,16.9 39.3,12.8 33.4,11.9 30.8,6.6 28.2,11.9 22.4,12.8 26.6,16.9 "/><polygon points="14.3,36.1 18,34.2 21.6,36.1 20.9,32.1 23.9,29.2 19.8,28.6 18,24.9 16.1,28.6 12.1,29.2 15,32.1 "/><text x="0" y="115" fill="#000000" font-size="5px" font-weight="bold" font-family="'Helvetica Neue', Helvetica, Arial-Unicode, Arial, Sans-serif">Created by kiddo</text><text x="0" y="120" fill="#000000" font-size="5px" font-weight="bold" font-family="'Helvetica Neue', Helvetica, Arial-Unicode, Arial, Sans-serif">from the Noun Project</text></svg>