<svg xmlns="http://www.w3.org/2000/svg" xmlns:xlink="http://www.w3.org/1999/xlink" version="1.1" x="0px" y="0px" viewBox="0 0 100 125" enable-background="new 0 0 100 100" xml:space="preserve"><path d="M62.8,12.3h0.5c1,0,1.9-0.8,1.9-1.9V3.7c0-1-0.8-1.9-1.9-1.9h-0.5c-1,0-1.9,0.8-1.9,1.9v6.8C61,11.5,61.8,12.3,62.8,12.3z"/><path d="M74,17c0.7,0.7,1.9,0.7,2.6,0l4.8-4.8c0.7-0.7,0.7-1.9,0-2.6l-0.3-0.3c-0.7-0.7-1.9-0.7-2.6,0L73.7,14  c-0.7,0.7-0.7,1.9,0,2.6L74,17z"/><path d="M86.9,25.5h-6.8c-1,0-1.9,0.8-1.9,1.9v0.5c0,1,0.8,1.9,1.9,1.9h6.8c1,0,1.9-0.8,1.9-1.9v-0.5C88.8,26.3,87.9,25.5,86.9,25.5  z"/><path d="M49.5,17c0.7,0.7,1.9,0.7,2.6,0l0.3-0.3c0.7-0.7,0.7-1.9,0-2.6l-4.8-4.8c-0.7-0.7-1.9-0.7-2.6,0l-0.3,0.3  c-0.7,0.7-0.7,1.9,0,2.6L49.5,17z"/><path d="M71.6,35.3c-0.2,0-0.5,0-0.7,0c2-2,3.2-4.8,3.2-7.8c0-6.1-4.9-11-11-11c-5,0-9.2,3.3-10.6,7.9c0,0,0,0-0.1,0  c-3.9-3.3-8.2-5-13-5c-10.4,0-19,7.7-20.8,18.4c-4.6,2.9-7.4,7.7-7.4,12.5c0,7.3,5.8,15.1,15.1,15.1h16.8l-5.6,16.6h8.6l-5.3,16  L60,76.3H49.7L56,65.5h15.6c8.6,0,15.9-6.9,15.9-15.1C87.5,42.2,80.2,35.3,71.6,35.3z M59.2,60.2H44.9H26.4c-6.1,0-9.8-5.1-9.8-9.8  c0-3.2,2.3-6.7,5.8-8.6l1.2-0.7l0.2-1.4c1-8.7,7.6-15,15.7-15c1.6,0,3,0.2,4.4,0.7c1.4,0.5,2.7,1.2,4,2.1c0.6,0.5,1.3,1,1.9,1.6  l1,0.9l1.3-0.3c0,0,0.1,0,0.2,0c0.9-0.2,2.2-0.2,2.9-0.2c5,0,9.4,3.7,10.3,8.7c0,0.2,0.1,0.3,0.1,0.4l0.4,2.9l2.8-0.7  c0.9-0.2,1.9-0.3,2.8-0.3c0.6,0,1.3,0.1,1.9,0.2c3.2,0.6,5.9,2.5,7.4,5.2c0.8,1.3,1.2,2.8,1.2,4.4c0,5.3-4.8,9.8-10.6,9.8H59.2z"/><text x="0" y="115" fill="#000000" font-size="5px" font-weight="bold" font-family="'Helvetica Neue', Helvetica, Arial-Unicode, Arial, Sans-serif">Created by kiddo</text><text x="0" y="120" fill="#000000" font-size="5px" font-weight="bold" font-family="'Helvetica Neue', Helvetica, Arial-Unicode, Arial, Sans-serif">from the Noun Project</text></svg>