<svg xmlns="http://www.w3.org/2000/svg" xmlns:xlink="http://www.w3.org/1999/xlink" version="1.1" x="0px" y="0px" viewBox="0 0 100 125" enable-background="new 0 0 100 100" xml:space="preserve"><path d="M30.5,86.3c-1.3-0.6-2.8,0-3.4,1.3L25,92.5c-0.6,1.3,0,2.9,1.3,3.5c0.3,0.2,0.7,0.2,1.1,0.2c1,0,1.9-0.6,2.3-1.5l2.1-4.8  C32.4,88.5,31.8,86.9,30.5,86.3z"/><path d="M45.7,84.2c-1.3-0.6-2.8,0-3.4,1.3l-2.1,4.8c-0.6,1.3,0,2.9,1.3,3.5c0.3,0.2,0.7,0.2,1.1,0.2c1,0,1.9-0.6,2.3-1.5l2.1-4.8  C47.5,86.4,47,84.8,45.7,84.2z"/><path d="M59,86.3c-1.3-0.6-2.8,0-3.4,1.3l-2.1,4.8c-0.6,1.3,0,2.9,1.3,3.5c0.3,0.2,0.7,0.2,1.1,0.2c1,0,1.9-0.6,2.3-1.5l2.1-4.8  C60.9,88.5,60.3,86.9,59,86.3z"/><path d="M88.9,45.2c-10.7,1-21.2-5-25.5-15.5c-3.8-9.3-1.7-19.6,4.7-26.6c-2.5,0.2-5,0.8-7.4,1.8C50.2,9.3,44.2,20,45.3,30.8  c-1.9-0.6-3.9-1-6.1-1c-10.4,0-19,7.7-20.8,18.4c-4.6,2.9-7.4,7.7-7.4,12.5c0,7.3,5.8,15.1,15.1,15.1h6.2l-1,2.2  c-0.6,1.3,0,2.9,1.3,3.5c0.3,0.2,0.7,0.2,1.1,0.2c1,0,1.9-0.6,2.3-1.5l1.9-4.4h8.6l0,0.1c-0.6,1.3,0,2.9,1.3,3.5  c0.3,0.2,0.7,0.2,1.1,0.2c1,0,1.9-0.6,2.3-1.5l1-2.3h8.6l-1,2.2c-0.6,1.3,0,2.9,1.3,3.5c0.4,0.2,0.7,0.2,1.1,0.2  c1,0,1.9-0.6,2.3-1.5l1.9-4.4h4.9c8.6,0,15.9-6.9,15.9-15.1c0-4.1-1.8-7.8-4.7-10.6C85,48.8,87.2,47.1,88.9,45.2z M82,60.7  c0,5.3-4.8,9.8-10.6,9.8H26.2c-6.1,0-9.8-5.1-9.8-9.8c0-3.2,2.3-6.7,5.8-8.6l1.2-0.7l0.2-1.4c1-8.7,7.6-15,15.7-15  c2.8,0,5.3,0.7,7.7,2.3c0.9,0.6,1.8,1.3,2.7,2.1l1,0.9l1.3-0.3c0.9-0.2,2.3-0.3,3-0.3c5.2,0,9.6,4,10.4,9.2l0.4,2.9l2.8-0.7  c0.9-0.2,1.9-0.3,2.8-0.3c2,0,3.9,0.6,5.5,1.5C79.9,54.2,82,57.3,82,60.7z"/><polygon points="25.6,17.5 30.8,14.8 36.1,17.5 35.1,11.7 39.3,7.6 33.4,6.8 30.8,1.5 28.2,6.8 22.4,7.6 26.6,11.7 "/><polygon points="14.3,35 18,33 21.6,35 20.9,30.9 23.9,28 19.8,27.4 18,23.7 16.1,27.4 12.1,28 15,30.9 "/><text x="0" y="115" fill="#000000" font-size="5px" font-weight="bold" font-family="'Helvetica Neue', Helvetica, Arial-Unicode, Arial, Sans-serif">Created by kiddo</text><text x="0" y="120" fill="#000000" font-size="5px" font-weight="bold" font-family="'Helvetica Neue', Helvetica, Arial-Unicode, Arial, Sans-serif">from the Noun Project</text></svg>