<svg xmlns="http://www.w3.org/2000/svg" xmlns:xlink="http://www.w3.org/1999/xlink" version="1.1" x="0px" y="0px" viewBox="0 0 100 125" enable-background="new 0 0 100 100" xml:space="preserve"><path d="M72.3,24.5c-0.6,0-1.2,0-1.8,0.1c-1.9-6.5-7.9-11.2-14.7-11.2c-0.8,0-1.9,0.1-2.9,0.2c-3.9-3.4-8-5-12.8-5  c-10.3,0-18.6,7.6-20.3,18.2c-4.5,2.9-7.4,7.7-7.4,12.4C12.3,47.4,18.9,54,27,54h45.3c8.4,0,15.4-6.8,15.4-14.8  C87.7,31.3,80.6,24.5,72.3,24.5z M72.3,48.7H27c-5.9,0-9.5-4.9-9.5-9.4c0-3.1,2.4-6.6,5.8-8.4l1.3-0.7l0.1-1.4  c0.9-8.6,7.4-14.9,15.4-14.9c3.9,0,7.1,1.4,10.3,4.5l1,1l1.3-0.3c0.7-0.2,2.2-0.3,3.1-0.3c5.2,0,9.5,4,10.1,9.2l0.4,3l2.9-0.8  c1-0.3,2.1-0.4,3.1-0.4c5.5,0,10.2,4.4,10.2,9.5C82.5,44.3,77.7,48.7,72.3,48.7z"/><path d="M47.6,71l2.1-4.8c0.6-1.3,0-2.9-1.3-3.5c-1.3-0.6-2.8,0-3.4,1.3l-2.1,4.8c-0.6,1.3,0,2.9,1.3,3.5c0.3,0.2,0.7,0.2,1.1,0.2  C46.2,72.6,47.1,72,47.6,71z"/><path d="M33.5,75.9c-1.3-0.6-2.8,0-3.4,1.3L27.9,82c-0.6,1.3,0,2.9,1.3,3.5c0.3,0.2,0.7,0.2,1.1,0.2c1,0,1.9-0.6,2.4-1.6l2.1-4.8  C35.4,78.1,34.8,76.5,33.5,75.9z"/><path d="M67.5,62.3H65l1.2-2.2c0.5-0.9,0.3-2-0.6-2.5c-0.8-0.5-1.9-0.1-2.4,0.8L62,60.5l-1.2-2.1c-0.5-0.9-1.6-1.3-2.4-0.8  c-0.8,0.5-1.1,1.6-0.6,2.5l1.2,2.2h-2.5c-1,0-1.9,0.8-1.9,1.7c0,0.9,0.9,1.7,1.9,1.7h2.5l-1.2,2.2c-0.5,0.9-0.3,2,0.6,2.5  c0.8,0.5,1.9,0.1,2.4-0.8l1.2-2.1l1.2,2.1c0.5,0.9,1.6,1.3,2.4,0.8c0.8-0.5,1.1-1.6,0.6-2.5L65,65.7h2.5c1,0,1.9-0.8,1.9-1.7  C69.4,63,68.5,62.3,67.5,62.3z"/><path d="M57.5,83.1H55l1.2-2.2c0.5-0.9,0.3-2-0.6-2.5c-0.8-0.5-1.9-0.1-2.4,0.8l-1.2,2.1l-1.2-2.1c-0.5-0.9-1.6-1.3-2.4-0.8  c-0.8,0.5-1.1,1.6-0.6,2.5l1.2,2.2h-2.5c-1,0-1.9,0.8-1.9,1.7c0,0.9,0.9,1.7,1.9,1.7h2.5l-1.2,2.2c-0.5,0.9-0.3,2,0.6,2.5  c0.8,0.5,1.9,0.1,2.4-0.8l1.2-2.1l1.2,2.1c0.5,0.9,1.6,1.3,2.4,0.8c0.8-0.5,1.1-1.6,0.6-2.5L55,86.5h2.5c1,0,1.9-0.8,1.9-1.7  C59.4,83.8,58.6,83.1,57.5,83.1z"/><path d="M34.4,61h-2.5l1.2-2.2c0.5-0.9,0.3-2-0.6-2.5c-0.8-0.5-1.9-0.1-2.4,0.8l-1.2,2.1l-1.2-2.1c-0.5-0.9-1.6-1.3-2.4-0.8  c-0.8,0.5-1.1,1.6-0.6,2.5L26,61h-2.5c-1,0-1.9,0.8-1.9,1.7c0,0.9,0.9,1.7,1.9,1.7H26l-1.2,2.2c-0.5,0.9-0.3,2,0.6,2.5  c0.8,0.5,1.9,0.1,2.4-0.8l1.2-2.1l1.2,2.1c0.5,0.9,1.6,1.3,2.4,0.8c0.8-0.5,1.1-1.6,0.6-2.5l-1.2-2.2h2.5c1,0,1.9-0.8,1.9-1.7  C36.3,61.8,35.4,61,34.4,61z"/><text x="0" y="115" fill="#000000" font-size="5px" font-weight="bold" font-family="'Helvetica Neue', Helvetica, Arial-Unicode, Arial, Sans-serif">Created by kiddo</text><text x="0" y="120" fill="#000000" font-size="5px" font-weight="bold" font-family="'Helvetica Neue', Helvetica, Arial-Unicode, Arial, Sans-serif">from the Noun Project</text></svg>