<svg xmlns="http://www.w3.org/2000/svg" xmlns:xlink="http://www.w3.org/1999/xlink" version="1.1" x="0px" y="0px" viewBox="0 0 100 125" enable-background="new 0 0 100 100" xml:space="preserve"><path d="M61.3,89.5h-2.5l1.2-2.2c0.5-0.9,0.3-2-0.6-2.5c-0.8-0.5-1.9-0.1-2.4,0.8l-1.2,2.1l-1.2-2.1c-0.5-0.9-1.6-1.3-2.4-0.8  c-0.8,0.5-1.1,1.6-0.6,2.5l1.2,2.2h-2.5c-1,0-1.9,0.8-1.9,1.7s0.9,1.7,1.9,1.7h2.5l-1.2,2.2c-0.5,0.9-0.3,2,0.6,2.5  c0.8,0.5,1.9,0.1,2.4-0.8l1.2-2.1l1.2,2.1c0.5,0.9,1.6,1.3,2.4,0.8c0.8-0.5,1.1-1.6,0.6-2.5l-1.2-2.2h2.5c1,0,1.9-0.8,1.9-1.7  S62.4,89.5,61.3,89.5z"/><path d="M88.9,44.3c-10.7,1-21.2-5-25.5-15.5c-3.8-9.3-1.7-19.6,4.7-26.6c-2.5,0.2-5,0.8-7.4,1.8C50.2,8.4,44.2,19.1,45.3,29.9  c-1.9-0.6-3.9-1-6.1-1c-10.4,0-19,7.7-20.8,18.4c-4.6,2.9-7.4,7.7-7.4,12.5c0,7.3,5.8,15.1,15.1,15.1h6.5l0.8,1.3h-2.5  c-1,0-1.9,0.8-1.9,1.7s0.9,1.7,1.9,1.7h2.5l-1.2,2.2c-0.5,0.9-0.3,2,0.6,2.5c0.8,0.5,1.9,0.1,2.4-0.8l1.2-2.1l1.2,2.1  c0.5,0.9,1.6,1.3,2.4,0.8c0.8-0.5,1.1-1.6,0.6-2.5l-1.2-2.2h2.5c1,0,1.9-0.8,1.9-1.7s-0.9-1.7-1.9-1.7h-2.5l0.8-1.3h31.3  c8.6,0,15.9-6.9,15.9-15.1c0-4.1-1.8-7.8-4.7-10.6C85,47.9,87.2,46.2,88.9,44.3z M71.4,69.6H26.2c-6.1,0-9.8-5.1-9.8-9.8  c0-3.2,2.3-6.7,5.8-8.6l1.2-0.7l0.2-1.4c1-8.7,7.6-15,15.7-15c2.8,0,5.3,0.7,7.7,2.3c0.9,0.6,1.8,1.3,2.7,2.1l1,0.9l1.3-0.3  c0.9-0.2,2.3-0.3,3-0.3c5.2,0,9.6,4,10.4,9.2l0.4,2.9l2.8-0.7c0.9-0.2,1.9-0.3,2.8-0.3c2,0,3.9,0.6,5.5,1.5c3,1.8,5,4.8,5,8.3  C82,65.2,77.2,69.6,71.4,69.6z"/><polygon points="25.6,20 30.8,17.3 36.1,20 35.1,14.2 39.3,10.1 33.4,9.2 30.8,3.9 28.2,9.2 22.4,10.1 26.6,14.2 "/><polygon points="14.3,34.1 18,32.2 21.6,34.1 20.9,30 23.9,27.1 19.8,26.5 18,22.8 16.1,26.5 12.1,27.1 15,30 "/><text x="0" y="115" fill="#000000" font-size="5px" font-weight="bold" font-family="'Helvetica Neue', Helvetica, Arial-Unicode, Arial, Sans-serif">Created by kiddo</text><text x="0" y="120" fill="#000000" font-size="5px" font-weight="bold" font-family="'Helvetica Neue', Helvetica, Arial-Unicode, Arial, Sans-serif">from the Noun Project</text></svg>