<svg xmlns="http://www.w3.org/2000/svg" viewBox="0 0 90.2 79.9"><defs><style>.cls-1{fill:#fff;}</style></defs><title>Ресурс 5</title><g id="Слой_2" data-name="Слой 2"><g id="Слой_1-2" data-name="Слой 1"><path class="cls-1" d="M28.9,61.6a2.56,2.56,0,0,0-3.4,1.3l-2.1,4.8a2.67,2.67,0,0,0,1.3,3.5,2,2,0,0,0,1.1.2,2.71,2.71,0,0,0,2.4-1.6L30.3,65A2.73,2.73,0,0,0,28.9,61.6Z"/><path class="cls-1" d="M44.5,70.1a2.56,2.56,0,0,0-3.4,1.3L39,76.2a2.67,2.67,0,0,0,1.3,3.5,2,2,0,0,0,1.1.2,2.53,2.53,0,0,0,2.3-1.5l2.1-4.8A2.67,2.67,0,0,0,44.5,70.1Z"/><path class="cls-1" d="M77.8,12.5a5.7,5.7,0,0,0-1.3.1c-2.3-6-8.1-9.9-14.3-9A16.69,16.69,0,0,0,52,0C45.6,0,39.7,4.1,36.7,9.8a18.53,18.53,0,0,0-9-2.3C17.4,7.5,9.1,15.1,7.4,25.7,2.9,28.6,0,33.4,0,38.1A14.81,14.81,0,0,0,14.7,52.9H38.3l-1.1,2.4a2.67,2.67,0,0,0,1.3,3.5,2.15,2.15,0,0,0,1.1.2,2.53,2.53,0,0,0,2.3-1.5L44,52.8H60c8.4,0,15.4-6.8,15.4-14.8a5.28,5.28,0,0,0-.1-1.3h2.5A12.36,12.36,0,0,0,90.2,24.5,12.32,12.32,0,0,0,77.8,12.5ZM70.2,38.2c0,5-4.8,9.4-10.2,9.4H14.7a9.46,9.46,0,0,1-9.5-9.4c0-3.1,2.4-6.6,5.8-8.4l1.3-.7.1-1.4c.9-8.6,7.4-14.9,15.4-14.9a13.48,13.48,0,0,1,7.3,2.1,15.77,15.77,0,0,1,3,2.4l1,1,1-.3.3-.1a14.82,14.82,0,0,1,3.1-.3,10.26,10.26,0,0,1,10.1,9.2l.4,3,2.9-.8a11,11,0,0,1,3.1-.4,10.71,10.71,0,0,1,7.1,2.8,9.48,9.48,0,0,1,3,5.3C70.1,37.3,70.2,37.7,70.2,38.2Zm7.6-6.7H73.7A15.61,15.61,0,0,0,60,23.4a10.87,10.87,0,0,0-1.8.1A15.51,15.51,0,0,0,43.5,12.3a17.73,17.73,0,0,0-2.2.1c2-4.1,6.2-7.1,10.6-7.1a11.43,11.43,0,0,1,7.7,3.1l1.1,1L62.1,9c4.7-1.2,9,2.3,9.9,7.2l.6,3,2.9-1a6.56,6.56,0,0,1,2.3-.4,7,7,0,0,1,7.1,6.9A6.94,6.94,0,0,1,77.8,31.5Z"/></g></g></svg>